<svg width="30" height="30" viewBox="0 0 30 30" fill="none" xmlns="http://www.w3.org/2000/svg">
<path d="M29.6512 12.0361C29.4649 10.3954 25.0473 12.0361 25.0473 12.0361L24.787 14.3707C24.6906 14.3156 24.5927 14.2619 24.4898 14.2162L23.374 9.34769C22.9651 7.02979 21.2156 5.32237 18.6657 5.41009H12.1136C12.0738 5.68198 12.01 5.94516 11.9309 6.20254H19.1079C20.5964 6.20254 21.9602 7.1603 22.3328 8.74157L23.5313 13.5485C23.4559 13.5463 23.3812 13.5391 23.3051 13.5391H9.4093L9.41293 18.2249H18.0211V19.2725H9.41365L9.41438 19.5785H17.9341V20.6283H9.41438L9.41728 24.5652H18.6084V27.0586C18.6084 28.0714 19.862 28.8943 21.407 28.8943C22.952 28.8943 24.2034 28.0721 24.2034 27.0586V24.2766C25.5237 23.7778 26.443 22.6867 26.443 21.4172V16.9561C26.443 15.9701 25.8862 15.0921 25.0241 14.5157L29.6512 14.2655C29.6512 14.2655 29.8368 13.6754 29.6512 12.0361ZM24.3506 20.55H19.3001V18.1487H24.3506V20.55Z" fill="#5EBCEA"/>
<path d="M9.41434 19.5778H9.28601V20.6276H9.41434V19.5778Z" fill="#5EBCEA"/>
<path d="M9.41353 18.2249H9.37366V19.2725H9.41353V18.2249Z" fill="#5EBCEA"/>
<path d="M11.1198 4.70395C11.1155 2.68984 10.0207 0.93528 8.39012 0V4.34506L5.69231 5.90241L2.99232 4.33999V0C1.36465 0.93528 0.267685 2.68984 0.266235 4.70395C0.266235 6.81594 1.47702 8.6459 3.24173 9.5442V9.5674V27.4385C3.24173 28.1461 3.52666 28.7863 3.99068 29.2511C4.45397 29.7151 5.09344 29.9971 5.80251 30C7.21196 30 8.35749 28.8559 8.36257 27.4392L8.35169 9.43037C10.004 8.50089 11.1177 6.73039 11.1198 4.70395ZM6.36658 28.5724C5.98522 28.9552 5.3646 28.9552 4.98033 28.5717C4.60187 28.1918 4.6026 27.5741 4.98396 27.1913C5.3675 26.8099 5.98594 26.8099 6.3644 27.1884C6.74794 27.5719 6.74867 28.1903 6.36658 28.5724Z" fill="#5EBCEA"/>
</svg>
