<svg width="28" height="28" viewBox="0 0 28 28" fill="none" xmlns="http://www.w3.org/2000/svg">
<g clip-path="url(#clip0)">
<path d="M11.7406 22.0297C10.3828 22.0297 9.27808 23.1344 9.27808 24.4922C9.27808 25.85 10.3828 26.9547 11.7406 26.9547C13.0984 26.9547 14.2031 25.85 14.2031 24.4922C14.2031 23.1344 13.0984 22.0297 11.7406 22.0297ZM11.7406 25.5797C11.1409 25.5797 10.653 25.0917 10.653 24.4921C10.653 23.8924 11.141 23.4045 11.7406 23.4045C12.3403 23.4045 12.8282 23.8924 12.8282 24.4921C12.8282 25.0918 12.3403 25.5797 11.7406 25.5797Z" fill="white"/>
<path d="M20.3782 22.0297C19.0203 22.0297 17.9156 23.1344 17.9156 24.4922C17.9156 25.85 19.0203 26.9547 20.3782 26.9547C21.736 26.9547 22.8407 25.85 22.8407 24.4922C22.8406 23.1344 21.736 22.0297 20.3782 22.0297ZM20.3782 25.5797C19.7785 25.5797 19.2906 25.0917 19.2906 24.4921C19.2906 23.8924 19.7785 23.4045 20.3782 23.4045C20.9779 23.4045 21.4657 23.8924 21.4657 24.4921C21.4657 25.0918 20.9778 25.5797 20.3782 25.5797Z" fill="white"/>
<path d="M20.9843 9.0647H11.1324C10.7527 9.0647 10.4449 9.37248 10.4449 9.75218C10.4449 10.1319 10.7528 10.4397 11.1324 10.4397H20.9843C21.364 10.4397 21.6718 10.1319 21.6718 9.75218C21.6718 9.37242 21.364 9.0647 20.9843 9.0647Z" fill="white"/>
<path d="M20.4487 12.6348H11.6693C11.2896 12.6348 10.9818 12.9425 10.9818 13.3222C10.9818 13.7019 11.2896 14.0097 11.6693 14.0097H20.4487C20.8284 14.0097 21.1362 13.7019 21.1362 13.3222C21.1362 12.9426 20.8284 12.6348 20.4487 12.6348Z" fill="white"/>
<path d="M27.6901 6.00163C27.4279 5.67985 27.0394 5.49533 26.6243 5.49533H5.21006L4.77759 3.39593C4.6873 2.95799 4.3886 2.59027 3.97839 2.41215L0.960889 1.10238C0.612529 0.951063 0.207677 1.11091 0.0565755 1.45917C-0.0946904 1.80753 0.0651614 2.21243 0.413357 2.36353L3.43091 3.67336L6.75733 19.8205C6.88837 20.4564 7.45471 20.9179 8.10402 20.9179H24.5741C24.9538 20.9179 25.2615 20.6102 25.2615 20.2305C25.2615 19.8508 24.9538 19.543 24.5741 19.543H8.10407L7.69944 17.5788H24.7014C25.3506 17.5788 25.917 17.1173 26.048 16.4814L27.971 7.14755C28.0547 6.74111 27.9523 6.32336 27.6901 6.00163ZM24.7014 16.204H7.41621L5.49334 6.87023L26.6242 6.87029L24.7014 16.204Z" fill="white"/>
</g>
<defs>
<clipPath id="clip0">
<rect width="28" height="28" fill="white"/>
</clipPath>
</defs>
</svg>
