<svg width="28" height="28" viewBox="0 0 28 28" fill="none" xmlns="http://www.w3.org/2000/svg">
<g clip-path="url(#clip0)">
<path d="M5.65686 27.3389C5.55312 27.3389 5.44937 27.3068 5.36216 27.2432C5.2078 27.1309 5.13061 26.9409 5.16319 26.753L6.71237 17.7226L0.151287 11.3279C0.0149634 11.1946 -0.0341532 10.9956 0.024486 10.8146C0.0836265 10.6332 0.240499 10.5009 0.429448 10.4733L9.49598 9.15571L13.5511 0.939698C13.6353 0.768291 13.8097 0.660034 14.0002 0.660034C14.1911 0.660034 14.3655 0.768291 14.4492 0.939698L18.5039 9.15571L27.5709 10.4733C27.7599 10.5009 27.9162 10.6327 27.9759 10.8146C28.0345 10.9956 27.9859 11.1951 27.8491 11.3279L21.288 17.7236L22.8367 26.7535C22.8687 26.9414 22.7916 27.1314 22.6377 27.2437C22.4833 27.3569 22.2783 27.3715 22.1094 27.2818L14.0002 23.0186L5.88992 27.2818C5.81674 27.3198 5.73655 27.3389 5.65686 27.3389ZM1.57818 11.3188L7.60048 17.1893C7.71826 17.3041 7.77239 17.4705 7.74432 17.6328L6.32244 25.9215L13.7671 22.0082C13.913 21.931 14.0869 21.931 14.2337 22.0082L21.6774 25.9215L20.256 17.6328C20.228 17.4705 20.2821 17.3046 20.3999 17.1893L26.4222 11.3188L18.0999 10.1095C17.9365 10.0859 17.7957 9.98318 17.7225 9.83532L14.0002 2.29442L10.2778 9.83583C10.2047 9.98368 10.0638 10.0864 9.90044 10.11L1.57818 11.3188Z" fill="white"/>
</g>
<defs>
<clipPath id="clip0">
<rect width="28" height="28" fill="white"/>
</clipPath>
</defs>
</svg>
