<svg width="30" height="30" viewBox="0 0 30 30" fill="none" xmlns="http://www.w3.org/2000/svg">
<g clip-path="url(#clip0)">
<path d="M29.7632 16.6358L24.3196 11.1933V7.6035C24.3196 7.1564 23.9568 6.79399 23.5097 6.79399C23.0618 6.79399 22.699 7.1564 22.699 7.6035V9.57391L18.8586 5.73394C18.5431 5.41762 18.0298 5.41762 17.7147 5.73394L13.6049 9.84453C13.7388 9.92529 13.8656 10.0194 13.9787 10.1317L14.7965 10.9424L18.2878 7.45184L28.6177 17.7825C28.776 17.9397 28.9832 18.02 29.19 18.02C29.3965 18.02 29.6048 17.9412 29.7624 17.7825C30.0787 17.4654 30.0787 16.9525 29.7632 16.6358Z" fill="#5EBCEA"/>
<path d="M27.4472 17.5658L18.86 8.97945C18.7088 8.82779 18.5032 8.74231 18.2885 8.74231C18.073 8.74231 17.8678 8.82779 17.7161 8.97945L15.2734 11.4218L15.789 11.9406C16.0435 12.1974 16.2219 12.5145 16.3043 12.8592C16.6521 14.3025 16.0451 16.3498 14.4249 17.2755C14.0731 17.4756 13.4988 17.7135 12.7535 17.7135C12.7535 17.7135 12.7535 17.7135 12.7531 17.7135C12.3836 17.7131 12.0152 17.656 11.6509 17.5402L11.1687 18.1405L13.9762 21.6441C14.3035 22.0518 14.452 22.5627 14.3945 23.0811C14.337 23.6007 14.081 24.0671 13.6729 24.3941C13.6244 24.4338 13.5736 24.4689 13.5216 24.5028H15.0201C15.5625 24.5028 16.0856 24.2735 16.4563 23.8729C16.7927 23.5097 16.9779 23.0374 16.9779 22.5442V19.4669C16.9779 18.72 17.5503 18.0964 18.2896 18.0255C19.029 18.0968 19.601 18.72 19.601 19.4669V22.5442C19.601 23.0374 19.787 23.5097 20.1226 23.8729C20.4921 24.2731 21.0164 24.5024 21.5588 24.5024H25.7502C26.8291 24.5024 27.7076 23.6243 27.7076 22.5442V18.3572C27.7076 18.2343 27.6961 18.1086 27.6713 17.9857C27.6382 17.8262 27.5618 17.6804 27.4472 17.5658Z" fill="#5EBCEA"/>
<path d="M9.69548 18.1433L11.3094 16.1307C12.5191 16.8618 13.4586 16.5053 13.8533 16.2804C14.9902 15.63 15.4298 14.1378 15.1872 13.1274C15.1509 12.9801 15.0749 12.8521 14.9733 12.7493C14.9579 12.767 14.9433 12.7843 14.9272 12.8013L13.472 14.2556C13.0233 14.7039 12.2977 14.7039 11.8491 14.256L11.6647 14.0717C11.2168 13.6234 11.2168 12.8966 11.6647 12.4487L13.1199 10.9935C13.136 10.977 13.1541 10.9624 13.1715 10.9471C13.069 10.8454 12.9406 10.7686 12.7933 10.7336C11.7833 10.4901 10.2903 10.9301 9.64191 12.0666C9.3894 12.5078 8.97342 13.6309 10.0993 15.0506L8.65868 16.8476L5.81377 13.2984C6.17302 12.9588 6.52322 12.6185 6.7903 12.3419C6.96244 12.1639 7.15901 12.0772 7.39182 12.0772C7.58445 12.0772 7.73178 12.1379 7.73296 12.1379C7.73296 12.1379 7.73296 12.1379 7.73217 12.1379C7.95198 12.2383 8.20961 12.1714 8.35142 11.9784C8.49362 11.7849 8.48023 11.5183 8.3199 11.3398C7.50409 10.4318 6.73003 10.2419 6.22541 10.2419C5.61168 10.2419 5.21382 10.5141 5.1697 10.5457C5.15867 10.5539 5.14725 10.5622 5.13701 10.5713L2.54657 12.7674H1.87178C1.74651 12.7674 1.62518 12.8139 1.53221 12.8986L0.165302 14.1378C0.0624876 14.2316 0.00182347 14.364 -0.000146142 14.5038C-0.0029036 14.6432 0.0526396 14.7776 0.152696 14.8753L2.17707 16.8484C2.27555 16.9445 2.40278 16.9918 2.53002 16.9918C2.65214 16.9918 2.77307 16.9493 2.86919 16.8618L4.04466 15.7994C4.1455 15.7088 4.20538 15.5808 4.21129 15.4457L4.24083 14.7472C4.33498 14.6625 4.46773 14.5424 4.62294 14.4018L7.62148 18.1417L3.9186 22.7604C3.63852 23.1098 3.69485 23.6196 4.04347 23.8993C4.19277 24.0198 4.37161 24.0773 4.54927 24.0773C4.78681 24.0773 5.02119 23.9729 5.18112 23.7736L8.6575 19.4369L11.8156 23.3753C11.9755 23.5743 12.2107 23.6791 12.4478 23.6791C12.6251 23.6791 12.8035 23.6215 12.9536 23.5018C13.3026 23.2221 13.3586 22.712 13.0781 22.3633L9.69548 18.1433Z" fill="#5EBCEA"/>
</g>
<defs>
<clipPath id="clip0">
<rect width="30" height="30" fill="white"/>
</clipPath>
</defs>
</svg>
