<svg width="20" height="20" viewBox="0 0 20 20" fill="none" xmlns="http://www.w3.org/2000/svg">
<path d="M10 20C15.5142 20 20 15.5142 20 10C20 4.48617 15.5138 0 10 0C4.48617 0 0 4.48617 0 10C0 15.5142 4.48579 20 10 20ZM10 0.769223C15.09 0.769223 19.2308 4.91036 19.2308 10C19.2308 15.0896 15.0896 19.2308 10 19.2308C4.91036 19.2308 0.769224 15.0896 0.769224 10C0.769224 4.91036 4.91041 0.769223 10 0.769223Z" fill="white"/>
<path d="M9.02708 4.9515C9.00976 5.48727 9.40249 5.91534 10.0271 5.91534C10.5801 5.91534 10.9732 5.48689 10.9732 4.9515C10.9732 4.39842 10.5625 3.96997 9.99167 3.96997C9.40206 3.96997 9.02708 4.39842 9.02708 4.9515ZM10.7763 16.0181V7.37921H9.20594V16.0181H10.7763Z" fill="white"/>
</svg>
