<svg width="30" height="30" viewBox="0 0 30 30" fill="none" xmlns="http://www.w3.org/2000/svg">
<g clip-path="url(#clip0)">
<path d="M7.50005 16.9565C4.80287 16.9565 2.60876 19.1506 2.60876 21.8478C2.60876 24.545 4.80287 26.7391 7.50005 26.7391C10.1972 26.7391 12.3913 24.545 12.3913 21.8478C12.3913 19.1506 10.1972 16.9565 7.50005 16.9565ZM7.50005 24.7827C5.88175 24.7827 4.56527 23.4662 4.56527 21.8479C4.56527 20.2296 5.88175 18.9131 7.50005 18.9131C9.11836 18.9131 10.4348 20.2296 10.4348 21.8479C10.4348 23.4662 9.11836 24.7827 7.50005 24.7827Z" fill="#5EBCEA"/>
<path d="M27.0654 20.8696C25.4471 20.8696 24.1306 22.1861 24.1306 23.8044C24.1306 25.4227 25.4471 26.7392 27.0654 26.7392C28.6837 26.7392 30.0002 25.4227 30.0002 23.8044C30.0002 22.1861 28.6837 20.8696 27.0654 20.8696ZM27.0654 24.7827C26.526 24.7827 26.0871 24.3438 26.0871 23.8044C26.0871 23.265 26.526 22.8261 27.0654 22.8261C27.6048 22.8261 28.0437 23.265 28.0437 23.8044C28.0437 24.3438 27.6048 24.7827 27.0654 24.7827Z" fill="#5EBCEA"/>
<path d="M24.2753 11.7942L14.4946 8.85986C13.9794 8.70523 13.4312 9.00025 13.2766 9.51558L12.9408 10.6339L24.5962 14.1304L24.9312 13.0119C25.0862 12.4946 24.7926 11.9494 24.2753 11.7942Z" fill="#5EBCEA"/>
<path d="M27.3461 16.9979L8.18631 11.25L4.46203 3.80157C4.29644 3.4704 3.95766 3.26086 3.58693 3.26086H0.978281C0.438223 3.26086 0 3.69909 0 4.23915C0 4.7792 0.438223 5.21743 0.978281 5.21743H2.98254L6.52178 12.2964V15.0782C6.84211 15.032 7.16707 15 7.5 15C11.2761 15 14.3479 18.0717 14.3479 21.8479C14.3479 22.899 14.1028 23.8917 13.6779 24.7826H22.2725C22.208 24.4664 22.174 24.1394 22.174 23.8044C22.1739 21.1072 24.368 18.9131 27.0652 18.9131C27.4003 18.9131 27.7273 18.9471 28.0435 19.0116V17.9348C28.0435 17.503 27.76 17.1221 27.3461 16.9979ZM20.5435 20.8696H16.6304C16.0904 20.8696 15.6521 20.4314 15.6521 19.8913C15.6521 19.3512 16.0904 18.913 16.6304 18.913H20.5435C21.0836 18.913 21.5218 19.3512 21.5218 19.8913C21.5218 20.4314 21.0836 20.8696 20.5435 20.8696Z" fill="#5EBCEA"/>
</g>
<defs>
<clipPath id="clip0">
<rect width="30" height="30" fill="white"/>
</clipPath>
</defs>
</svg>
