<svg width="30" height="30" viewBox="0 0 30 30" fill="none" xmlns="http://www.w3.org/2000/svg">
<g clip-path="url(#clip0)">
<path d="M9.8739 6.49835V8.08932H11.9953V6.49835C11.9953 5.91251 11.5205 5.43762 10.9346 5.43762C10.3488 5.43762 9.8739 5.91251 9.8739 6.49835Z" fill="#5EBCEA"/>
<path d="M19.4202 6.49834V10.2108C19.4202 10.7966 19.8951 11.2715 20.4809 11.2715C21.0667 11.2715 21.5416 10.7966 21.5416 10.2108V6.49834C21.5416 5.91251 21.0667 5.43762 20.4809 5.43762C19.8951 5.43762 19.4202 5.91251 19.4202 6.49834Z" fill="#5EBCEA"/>
<path d="M2.60718 11.7648C3.69073 11.7544 4.68411 11.1603 5.20605 10.2108H7.0761L7.25738 9.75639C7.53692 9.05616 8.10315 8.50908 8.8126 8.25376V7.02859H5.22727C4.71086 6.05897 3.70596 5.44869 2.60718 5.43762C1.72889 5.442 0.898351 5.83732 0.34112 6.51633L1.82807 6.49834C2.96375 6.47851 3.92368 7.33465 4.03393 8.46479C4.07706 9.05293 3.8734 9.6323 3.47185 10.0643C3.07054 10.4961 2.50731 10.7412 1.91779 10.7412H0.389324L0 11.105L0.397166 10.7539C0.955089 11.3919 1.7598 11.76 2.60718 11.7648Z" fill="#5EBCEA"/>
<path d="M8.24116 10.1503L6.91843 13.4573C6.80588 13.7384 6.81902 14.0544 6.95441 14.3254L10.1557 19.478C10.3165 19.7838 10.4014 20.1238 10.4034 20.4693V24.5306H17.8285V21.7496C17.8282 21.3978 17.9154 21.0514 18.082 20.7416C18.0942 20.7193 18.1078 20.6976 18.123 20.6771L20.1245 17.9797C20.9207 16.9464 21.4062 15.7079 21.5236 14.4087C21.5354 14.2495 21.5411 14.0842 21.5411 13.9213V12.0374C20.6688 12.5592 19.5472 12.374 18.8892 11.5995C18.4713 12.0873 17.8525 12.3569 17.2106 12.3306C16.5685 12.3045 15.9737 11.9856 15.5968 11.4652C14.9872 12.3181 14.0086 12.8311 12.9603 12.8468C14.2369 13.7537 15.707 15.3024 15.707 17.6361C15.707 17.929 15.4697 18.1663 15.1768 18.1663C14.8839 18.1663 14.6463 17.929 14.6463 17.6361C14.6463 14.3425 10.7858 12.8435 10.7466 12.8288C10.5065 12.7384 10.3656 12.4895 10.4115 12.2372C10.4576 11.9849 10.6774 11.8017 10.9339 11.802H12.5249C14.0353 11.802 14.918 11.1126 15.1482 9.7557C15.1731 9.6074 15.1309 9.45541 15.0331 9.34101C14.9307 9.21992 14.7801 9.15004 14.6214 9.15004H9.7198C9.06801 9.14727 8.48126 9.54444 8.24116 10.1503Z" fill="#5EBCEA"/>
<path d="M28.5261 6.49834H30.0006C29.4431 5.82902 28.6181 5.44062 27.747 5.43762C26.6485 5.44869 25.6435 6.05897 25.1271 7.02859H22.6025V10.2108H25.1484C25.6701 11.1603 26.6637 11.7544 27.747 11.7648C28.5944 11.76 29.3991 11.3919 29.957 10.7539L28.4364 10.7412C27.8471 10.7405 27.2846 10.4949 26.8832 10.0634C26.4819 9.63161 26.278 9.0527 26.3203 8.46479C26.4305 7.33465 27.3907 6.47851 28.5261 6.49834Z" fill="#5EBCEA"/>
<path d="M16.2383 6.49834V10.2108C16.2383 10.7966 16.7132 11.2715 17.299 11.2715C17.8848 11.2715 18.3597 10.7966 18.3597 10.2108V6.49834C18.3597 5.91251 17.8848 5.43762 17.299 5.43762C16.7132 5.43762 16.2383 5.91251 16.2383 6.49834Z" fill="#5EBCEA"/>
<path d="M13.056 6.49834V8.08931H14.6221C14.8121 8.09162 15.0001 8.12737 15.1775 8.19541V6.49834C15.1775 5.91251 14.7026 5.43762 14.1168 5.43762C13.5309 5.43762 13.056 5.91251 13.056 6.49834Z" fill="#5EBCEA"/>
</g>
<defs>
<clipPath id="clip0">
<rect width="30" height="30" fill="white"/>
</clipPath>
</defs>
</svg>
