<svg width="50" height="50" viewBox="0 0 50 50" fill="none" xmlns="http://www.w3.org/2000/svg">
<g clip-path="url(#clip0)">
<path d="M46.1011 41.6065L38.7938 28.7694C39.5344 28.4237 39.9788 27.6338 39.9294 26.745L39.3863 22.2027L42.4969 18.944C43.1881 18.2528 43.2375 17.0678 42.5462 16.2285L39.4357 12.8711L40.0776 8.27933C40.1763 7.29186 39.4851 6.30439 38.4976 6.10689L34.0046 5.21817L31.8322 1.21891C31.3878 0.280812 30.3016 -0.114176 29.3141 0.280812H29.2647L25.1174 2.20638L21.0687 0.231439C20.6244 -0.0154292 20.0813 -0.0648028 19.5875 0.0833179C19.0938 0.231439 18.6988 0.577054 18.4519 1.02142L16.2301 5.02067L11.7371 5.81065C10.7003 6.00815 10.0091 6.94624 10.1078 8.03246L10.6509 12.5748L7.54037 15.8335C6.84914 16.5247 6.79977 17.7097 7.491 18.549L10.6015 21.9064L9.95968 26.4982C9.86093 27.3869 10.404 28.2263 11.2434 28.5719L3.88673 41.6065C3.68924 41.9027 3.73861 42.2977 3.88673 42.594C4.08422 42.8902 4.38047 43.0877 4.72608 43.0877H12.6259L16.2301 49.3581C16.4276 49.6544 16.7239 49.8519 17.0695 49.8519C17.4151 49.8519 17.7607 49.6544 17.9088 49.3581L24.9692 37.311L32.0297 49.5063C32.2272 49.8025 32.5234 50 32.869 50C33.2146 50 33.5602 49.8025 33.7084 49.5063L37.3126 43.0877H45.2124C45.558 43.0877 45.9036 42.8902 46.0518 42.594C46.2986 42.2977 46.2986 41.9027 46.1011 41.6065ZM17.1188 46.8895L14.0577 41.6065C13.8602 41.3102 13.5639 41.1128 13.2183 41.1128H6.40478L13.2183 29.0656L16.0326 29.5593L18.2051 33.5586C18.6494 34.4967 19.7356 34.8917 20.7231 34.4967H20.7725L22.7968 33.5586L23.7843 35.2867L17.1188 46.8895ZM19.9825 32.7192C19.9331 32.7192 19.9331 32.7192 19.9331 32.7192L17.7607 28.6212C17.4645 28.1275 16.9707 27.7325 16.3782 27.6831L11.8359 26.8438L12.4777 22.3014C12.5765 21.7089 12.379 21.0671 11.984 20.6721L8.92283 17.3147L12.0334 14.056C12.4777 13.6117 12.6752 13.0192 12.5765 12.4267L12.0334 7.93372C12.0334 7.93372 12.0334 7.88434 12.0827 7.83497L16.5757 7.04499C17.1188 6.94624 17.662 6.60063 17.9582 6.05752L20.18 2.05826L24.2286 4.0332C24.7717 4.32944 25.463 4.32944 26.0061 4.0332L30.1041 2.15701C30.1535 2.15701 30.1535 2.15701 30.1535 2.15701L32.3259 6.25501C32.6221 6.74875 33.1159 7.14374 33.659 7.19311L38.152 8.08184L37.5101 12.6242C37.4114 13.2167 37.6089 13.8585 38.0039 14.2535L41.1144 17.6109L37.9545 20.8696C37.5101 21.314 37.3126 21.9064 37.4114 22.4989L37.9545 27.0413L33.5109 27.7819C32.9678 27.8806 32.4247 28.2263 32.1284 28.7694L29.9066 32.7686L25.858 30.7937C25.3149 30.4974 24.6236 30.4974 24.0805 30.7937L19.9825 32.7192ZM36.7695 41.1128C36.4239 41.1128 36.0783 41.3102 35.9302 41.6065L32.869 47.0376L25.9073 34.9904C25.858 34.8423 25.8086 34.7436 25.7098 34.6448L24.6236 32.7192L24.9692 32.5711L29.0179 34.5461C29.3141 34.6942 29.6104 34.7436 29.9066 34.7436C30.5978 34.7436 31.2891 34.3979 31.6347 33.7561L33.8565 29.7568L36.8189 29.2137L43.5831 41.1128H36.7695Z" fill="white"/>
<path d="M34.8438 17.4135C34.8438 11.9824 30.4002 7.53876 24.9691 7.53876C19.538 7.53876 15.0944 11.9824 15.0944 17.4135C15.0944 22.8446 19.538 27.2882 24.9691 27.2882C30.4002 27.2882 34.8438 22.8446 34.8438 17.4135ZM24.9691 25.3132C20.6242 25.3132 17.0693 21.7583 17.0693 17.4135C17.0693 13.0686 20.6242 9.5137 24.9691 9.5137C29.3139 9.5137 32.8688 13.0686 32.8688 17.4135C32.8688 21.7583 29.3139 25.3132 24.9691 25.3132Z" fill="white"/>
</g>
<defs>
<clipPath id="clip0">
<rect width="50" height="50" fill="white"/>
</clipPath>
</defs>
</svg>
