<svg width="50" height="50" viewBox="0 0 50 50" fill="none" xmlns="http://www.w3.org/2000/svg">
<g clip-path="url(#clip0)">
<path d="M42.4838 16.7082C42.4832 16.7082 42.4826 16.7082 42.4821 16.7082H0.715873C0.320974 16.7078 0.000418071 17.0275 4.08739e-07 17.4224C4.08739e-07 17.4229 4.08739e-07 17.4235 4.08739e-07 17.4241V37.4718C-0.000417253 37.8667 0.319303 38.1873 0.714203 38.1877C0.714725 38.1877 0.715351 38.1877 0.715873 38.1877H29.1169C29.5122 38.1877 29.8328 37.8672 29.8328 37.4718C29.8328 37.0765 29.5122 36.756 29.1169 36.756H1.43175V18.1399H41.7662V19.93C41.7658 20.3249 42.0855 20.6455 42.4804 20.6459C42.4809 20.6459 42.4816 20.6459 42.4821 20.6459C42.877 20.6463 43.1975 20.3266 43.198 19.9317C43.198 19.9312 43.198 19.9306 43.198 19.93V17.4241C43.1984 17.0292 42.8787 16.7087 42.4838 16.7082Z" fill="white"/>
<path d="M37.6272 13.3845L4.21424 5.86663C4.02879 5.82517 3.83448 5.8588 3.67378 5.96018C3.51329 6.06241 3.3998 6.22394 3.35803 6.40959L1.68738 13.9275C1.60155 14.3136 1.84505 14.6962 2.23118 14.782C2.61731 14.8679 2.99988 14.6244 3.08571 14.2382L4.60016 7.42116L37.3131 14.7812C37.3649 14.7932 37.4179 14.7992 37.471 14.7987C37.8663 14.798 38.1862 14.4769 38.1856 14.0816C38.185 13.7474 37.9532 13.4582 37.6272 13.3845Z" fill="white"/>
<path d="M33.5701 9.24205L13.5223 0.888812C13.1739 0.74357 12.7724 0.89278 12.6034 1.23046L10.9328 4.57176C10.7441 4.92071 10.874 5.35665 11.2231 5.54533C11.572 5.73401 12.0079 5.60411 12.1966 5.25505C12.204 5.24137 12.211 5.22738 12.2175 5.21318V5.21485L13.5883 2.47165L33.0171 10.5668C33.383 10.7194 33.8033 10.5467 33.956 10.1809C34.1086 9.81519 33.9359 9.39481 33.5701 9.24205Z" fill="white"/>
<path d="M34.0762 20.0496H27.4462C27.0509 20.0496 26.7303 20.3701 26.7303 20.7654C26.7303 21.1608 27.0509 21.4813 27.4462 21.4813H34.0762C34.4715 21.4813 34.7921 21.1608 34.7921 20.7654C34.7921 20.3701 34.4715 20.0496 34.0762 20.0496Z" fill="white"/>
<path d="M20.7637 20.0972C16.7039 20.0972 13.4128 23.3883 13.4128 27.4481C13.417 31.5061 16.7057 34.7947 20.7637 34.7989C24.8235 34.7989 28.1145 31.5079 28.1145 27.4481C28.1145 23.3883 24.8235 20.0972 20.7637 20.0972ZM20.7637 33.4624C17.442 33.4624 14.7494 30.7697 14.7494 27.4481C14.753 24.128 17.4436 21.4374 20.7637 21.4337C24.0854 21.4337 26.778 24.1264 26.778 27.4481C26.778 30.7697 24.0854 33.4624 20.7637 33.4624Z" fill="white"/>
<path d="M40.8115 22.436C36.3843 22.436 31.6229 23.4819 31.6229 25.7773V45.8251C31.6229 48.1206 36.3843 49.1664 40.8115 49.1664C45.2387 49.1664 50.0001 48.1206 50.0001 45.8251V25.7773C50.0001 23.4819 45.2387 22.436 40.8115 22.436ZM48.3294 45.8126C48.2033 46.2762 45.6981 47.4957 40.8115 47.4957C35.9248 47.4957 33.4197 46.2762 33.2936 45.8251V44.512C35.0711 45.4074 38.0073 45.8251 40.8115 45.8251C43.6157 45.8251 46.5527 45.4033 48.3294 44.5111V45.8126ZM48.3294 42.4713C48.2033 42.9349 45.6981 44.1545 40.8115 44.1545C35.9248 44.1545 33.4197 42.9349 33.2936 42.4838V41.1707C35.0711 42.0661 38.0073 42.4838 40.8115 42.4838C43.6157 42.4838 46.5527 42.062 48.3294 41.1698V42.4713ZM48.3294 39.13C48.2033 39.5936 45.6981 40.8132 40.8115 40.8132C35.9248 40.8132 33.4197 39.5936 33.2936 39.1425V37.8294C35.0711 38.7248 38.0073 39.1425 40.8115 39.1425C43.6157 39.1425 46.5527 38.7207 48.3294 37.8285V39.13ZM48.3294 35.7887C48.2033 36.2523 45.6981 37.4719 40.8115 37.4719C35.9248 37.4719 33.4197 36.2523 33.2936 35.8012V34.4881C35.0711 35.3836 38.0073 35.8012 40.8115 35.8012C43.6157 35.8012 46.5527 35.3794 48.3294 34.4873V35.7887ZM48.3294 32.4474C48.2033 32.911 45.6981 34.1306 40.8115 34.1306C35.9248 34.1306 33.4197 32.911 33.2936 32.4599V31.1468C35.0711 32.0381 38.0073 32.4599 40.8115 32.4599C43.6157 32.4599 46.5527 32.0381 48.3294 31.146V32.4474ZM48.3294 29.1061C48.2033 29.5697 45.6981 30.7893 40.8115 30.7893C35.9248 30.7893 33.4197 29.5697 33.2936 29.1186V27.8055C35.0711 28.6968 38.0073 29.1186 40.8115 29.1186C43.6157 29.1186 46.5527 28.6968 48.3294 27.8047V29.1061ZM40.8115 27.448C35.9324 27.448 33.4281 26.2317 33.2936 25.7924V25.7874C33.4281 25.3221 35.9324 24.1067 40.8115 24.1067C45.6564 24.1067 48.1623 25.3045 48.3294 25.7773C48.1623 26.2501 45.6564 27.448 40.8115 27.448Z" fill="white"/>
<path d="M14.0809 33.4139H7.76672L4.77291 30.1395V24.7098L8.07913 21.4813H14.0809C14.4763 21.4813 14.7968 21.1608 14.7968 20.7654C14.7968 20.3701 14.4763 20.0496 14.0809 20.0496H7.78843C7.60132 20.0491 7.42141 20.122 7.28724 20.2525L3.55585 23.8921C3.41645 24.0549 3.34002 24.2624 3.34033 24.4768V30.4176C3.34033 30.5963 3.40705 30.7685 3.52745 30.9004L6.92137 34.6126C7.057 34.7611 7.24892 34.8458 7.45013 34.8457H14.0809C14.4763 34.8457 14.7968 34.5251 14.7968 34.1298C14.7968 33.7345 14.4764 33.4139 14.0809 33.4139Z" fill="white"/>
<path d="M21.1813 26.6127H20.346C20.0862 26.6127 19.9283 26.4674 19.9283 26.4039C19.9283 26.3404 20.0862 26.1951 20.346 26.1951H22.4343C22.8956 26.1951 23.2696 25.821 23.2696 25.3597C23.2696 24.8984 22.8956 24.5244 22.4343 24.5244H21.599C21.599 24.0631 21.225 23.6891 20.7637 23.6891C20.3024 23.6891 19.9283 24.0631 19.9283 24.5244V24.562C19.0019 24.6928 18.3 25.465 18.2577 26.3997C18.3175 27.4949 19.2504 28.3364 20.346 28.2834H21.1813C21.4411 28.2834 21.599 28.4287 21.599 28.4922C21.599 28.5557 21.4411 28.701 21.1813 28.701H19.093C18.6317 28.701 18.2577 29.075 18.2577 29.5363C18.2577 29.9977 18.6317 30.3717 19.093 30.3717H19.9283C19.9283 30.833 20.3024 31.207 20.7637 31.207C21.225 31.207 21.599 30.833 21.599 30.3717V30.3341C22.5255 30.2032 23.2273 29.4311 23.2696 28.4964C23.2098 27.4012 22.277 26.5597 21.1813 26.6127Z" fill="white"/>
</g>
<defs>
<clipPath id="clip0">
<rect width="50" height="50" fill="white"/>
</clipPath>
</defs>
</svg>
