<svg width="30" height="30" viewBox="0 0 30 30" fill="none" xmlns="http://www.w3.org/2000/svg">
<g clip-path="url(#clip0)">
<path d="M27.2774 11.7455C26.71 11.8597 26.3419 12.4141 26.4559 12.9818L28.0943 21.1044C28.1928 21.5926 28.6244 21.9467 29.1214 21.9467C29.191 21.9467 29.2619 21.9398 29.3304 21.9257C29.5683 21.8775 29.7685 21.7489 29.9157 21.5771L28.2674 12.0772C28.0734 11.8595 27.7926 11.7244 27.4856 11.7244C27.4167 11.7244 27.3464 11.7314 27.2774 11.7455Z" fill="#5EBCEA"/>
<path d="M15.7421 6.43538C16.7607 6.10677 17.6945 6.24828 18.5648 6.86952C19.2827 7.38192 19.8883 7.79693 20.8018 7.80684C21.5812 7.81526 22.4853 7.64322 23.0725 7.08757C23.6792 6.51421 23.9612 5.39862 23.2151 4.798C22.8384 4.49442 22.3724 4.33653 21.9849 4.05048C21.9831 4.04957 21.9824 4.04785 21.98 4.04688H21.4985H16.5564H14.4633C14.131 4.04688 13.8084 4.08795 13.4978 4.15899C13.0646 4.73034 12.799 5.58676 13.0778 6.26323C13.548 7.40209 14.9354 6.69582 15.7421 6.43538Z" fill="#5EBCEA"/>
<path d="M29.9908 22.0966C29.824 22.2181 29.6303 22.3069 29.4158 22.3502C29.3184 22.3697 29.2197 22.3794 29.1212 22.3794C28.419 22.3794 27.8083 21.8791 27.6701 21.1898L26.0314 13.0669C25.8703 12.2656 26.3907 11.4824 27.192 11.3209C27.2891 11.3014 27.3876 11.2915 27.4861 11.2915C27.727 11.2915 27.956 11.354 28.1599 11.4596L27.9087 10.0105C27.9132 9.93514 27.9205 9.8629 27.9205 9.78356V9.67545C27.9205 1.51148 25.9825 4.04705 23.5916 4.04705H22.8287C23.5335 4.45713 24.1454 4.93756 24.0865 5.87539C23.973 7.7063 21.9476 8.39492 20.3683 8.20615C19.9704 8.15866 19.5552 8.05141 19.2069 7.8466C18.7008 7.54841 18.2739 7.10831 17.729 6.87274C16.3448 6.2724 15.2477 7.42965 13.8844 7.31851C12.3404 7.19236 12.3616 5.48433 12.9041 4.34026C11.6919 4.80986 10.7508 5.81105 10.3511 7.05629L1.69015 7.07978L0 8.00002L1.5785 8.96919L10.1838 9.08251C10.4757 11.1896 12.2761 12.8139 14.4633 12.8139H16.5564H20.1479C20.6043 13.3356 23.3532 16.7432 22.1931 21.9843C20.9306 27.6912 23.862 26.2729 26.0897 25.8811C28.9875 25.0591 30.115 24.2574 29.9908 22.0966ZM9.14396 8.74771L8.22246 8.7355L9.33628 7.37952L10.2558 7.377C10.2534 7.38674 10.2496 7.39533 10.2476 7.40461L9.14396 8.74771ZM5.53966 7.39018L6.47319 7.38766L5.3962 8.69832L4.47459 8.68606L5.53966 7.39018ZM3.45117 8.67294L2.52956 8.66074L3.56907 7.39568L4.50249 7.39298L3.45117 8.67294ZM7.42024 7.38496L8.35366 7.38244L7.25209 8.72296L6.33071 8.71087L7.42024 7.38496ZM1.10912 8.30411L1.85159 7.40049L2.78547 7.39785L1.75535 8.65037L1.67113 8.6494L1.10912 8.30411Z" fill="#5EBCEA"/>
<path d="M18.8463 13.3911C18.8463 13.3911 20.073 14.6543 20.073 15.7363L21.2636 15.5561L20.1451 13.3912H18.8463V13.3911Z" fill="#5EBCEA"/>
</g>
<defs>
<clipPath id="clip0">
<rect width="30" height="30" fill="white"/>
</clipPath>
</defs>
</svg>
