<svg width="16" height="16" viewBox="0 0 16 16" fill="none" xmlns="http://www.w3.org/2000/svg">
<g clip-path="url(#clip0)">
<path d="M15.863 15.184L11.9747 11.2958C13.0177 10.0967 13.6492 8.53215 13.6492 6.82217C13.6492 3.05809 10.5876 0 6.82706 0C3.06298 0 0.00488281 3.06164 0.00488281 6.82217C0.00488281 10.5827 3.06652 13.6443 6.82706 13.6443C8.53703 13.6443 10.1016 13.0129 11.3007 11.9698L15.1889 15.8581C15.2812 15.9503 15.4053 16 15.5259 16C15.6466 16 15.7707 15.9539 15.863 15.8581C16.0475 15.6736 16.0475 15.3685 15.863 15.184ZM0.959207 6.82217C0.959207 3.5867 3.59158 0.957871 6.82351 0.957871C10.059 0.957871 12.6878 3.59024 12.6878 6.82217C12.6878 10.0541 10.059 12.69 6.82351 12.69C3.59158 12.69 0.959207 10.0576 0.959207 6.82217Z" fill="white"/>
</g>
<defs>
<clipPath id="clip0">
<rect width="16" height="16" fill="white"/>
</clipPath>
</defs>
</svg>
