<svg width="50" height="50" viewBox="0 0 50 50" fill="none" xmlns="http://www.w3.org/2000/svg">
<g clip-path="url(#clip0)">
<path d="M22.4968 32.6534C22.8779 32.2715 22.8779 31.6532 22.4968 31.2713C22.115 30.8906 21.497 30.8906 21.1152 31.2713C20.7341 31.6532 20.7341 32.2715 21.1152 32.6534C21.497 33.0341 22.115 33.0341 22.4968 32.6534Z" fill="white"/>
<path d="M22.8523 9.66833V11.6215C22.8523 14.8586 25.4745 17.4808 28.7117 17.4808C31.9427 17.4808 34.5714 14.8525 34.5714 11.6215V9.66833C35.1108 9.66833 35.548 9.23117 35.548 8.69177C35.548 8.15237 35.1108 7.71521 34.5714 7.71521H32.6183C32.0789 7.71521 31.6417 8.15237 31.6417 8.69177C31.6417 9.23117 32.0789 9.66833 32.6183 9.66833V11.6215C32.6183 13.7752 30.8658 15.5277 28.7117 15.5277C26.5545 15.5277 24.8054 13.7794 24.8054 11.6215V9.66833C25.3448 9.66833 25.782 9.23117 25.782 8.69177C25.782 8.15237 25.3448 7.71521 24.8054 7.71521H22.8523C22.3129 7.71521 21.8757 8.15237 21.8757 8.69177C21.8757 9.23117 22.3129 9.66833 22.8523 9.66833Z" fill="white"/>
<path d="M11.3495 47.9435C11.5402 48.1339 11.7897 48.2288 12.0396 48.2288C12.2894 48.2288 12.5393 48.1335 12.73 47.9431L15.7287 44.9444C16.7057 43.9682 17.176 42.6311 17.0402 41.28L18.1156 40.2416C18.9689 39.4192 20.0908 38.966 21.2742 38.966H34.132C36.4353 38.966 38.6123 38.0814 40.2618 36.475C40.2862 36.4513 40.3091 36.4265 40.3308 36.4002L49.0795 25.8945C50.4695 24.2496 50.2616 21.78 48.6152 20.3884C46.9795 19.0098 44.5282 19.2081 43.1339 20.8256L42.189 21.8029V2.73438C42.189 2.19498 41.7514 1.75781 41.2124 1.75781H16.1136C15.5746 1.75781 15.1371 2.19498 15.1371 2.73438V24.6143C11.3552 25.4082 8.3557 27.7557 6.74018 31.1874C5.46607 31.1214 4.22363 31.5899 3.30162 32.513L0.287629 35.5122C0.103761 35.6953 0.000382521 35.944 1.05199e-06 36.2034C-0.000380417 36.4632 0.102998 36.7119 0.286485 36.8954L11.3495 47.9435ZM40.2359 3.71094V23.8224L37.4096 26.7445C36.6821 25.8507 35.5735 25.2937 34.3761 25.2937H23.0533C22.9908 25.2937 22.9229 25.2792 22.8546 25.2518C21.3333 24.6315 19.7223 24.3172 18.0672 24.3172C17.7402 24.3172 17.4145 24.329 17.0906 24.3504V3.71094H40.2359ZM16.2536 26.3988C18.2293 26.1131 20.2049 26.281 22.121 27.0618C22.4254 27.1847 22.7394 27.2472 23.0533 27.2472H34.3761C35.4351 27.2472 36.3292 28.1109 36.3292 29.2004C36.3292 30.2773 35.453 31.1535 34.3761 31.1535H25.8796C25.3406 31.1535 24.9031 31.5907 24.9031 32.1301C24.9031 32.6694 25.3406 33.1066 25.8796 33.1066H34.3761C36.5303 33.1066 38.2824 31.3541 38.2824 29.2004C38.2824 29.0279 38.2698 28.8567 38.2476 28.6877C38.4513 28.479 44.3542 22.374 44.5587 22.1622C44.5735 22.1466 44.5884 22.1306 44.6022 22.1142C45.298 21.2925 46.5335 21.1887 47.3556 21.8815C48.1784 22.5769 48.2826 23.8117 47.583 24.6395L38.8637 35.1101C37.5854 36.3377 35.9069 37.0129 34.132 37.0129H21.2742C19.5823 37.0129 17.9794 37.6598 16.7595 38.8359L16.3288 39.2517C16.1564 38.9866 15.9557 38.739 15.7291 38.5128L9.7309 32.5146C9.41047 32.1941 9.04693 31.9279 8.65363 31.7177C10.1456 28.775 12.8105 26.8993 16.2536 26.3988ZM4.68139 33.8955C5.70754 32.8678 7.34748 32.893 8.3496 33.8959L14.3486 39.8945C15.3541 40.8981 15.3721 42.54 14.3482 43.5627L12.0388 45.8717L2.35977 36.2057L4.68139 33.8955Z" fill="white"/>
</g>
<defs>
<clipPath id="clip0">
<rect width="50" height="50" fill="white"/>
</clipPath>
</defs>
</svg>
