<svg width="50" height="50" viewBox="0 0 50 50" fill="none" xmlns="http://www.w3.org/2000/svg">
<path d="M11.6667 32.9167C8.90923 32.9167 6.66675 35.1592 6.66675 37.9168C6.66675 40.6743 8.90923 42.9168 11.6667 42.9168C14.4243 42.9168 16.6668 40.6743 16.6668 37.9168C16.6668 35.1592 14.4242 32.9167 11.6667 32.9167ZM11.6667 41.2501C9.82837 41.2501 8.33345 39.755 8.33345 37.9168C8.33345 36.0784 9.82847 34.5834 11.6667 34.5834C13.505 34.5834 15.0001 36.0785 15.0001 37.9168C15.0001 39.755 13.505 41.2501 11.6667 41.2501Z" fill="white"/>
<path d="M40 32.9167C37.2425 32.9167 35 35.1592 35 37.9168C35 40.6743 37.2425 42.9168 40 42.9168C42.7575 42.9168 45 40.6743 45 37.9168C45 35.1592 42.7575 32.9167 40 32.9167ZM40 41.2501C38.1616 41.2501 36.6667 39.755 36.6667 37.9168C36.6667 36.0784 38.1617 34.5834 40 34.5834C41.8384 34.5834 43.3333 36.0785 43.3333 37.9168C43.3333 39.755 41.8384 41.2501 40 41.2501Z" fill="white"/>
<path d="M49.8675 28.2993L42.3675 16.6326C42.2142 16.3942 41.95 16.2501 41.6666 16.2501H32.5C32.0392 16.2501 31.6667 16.6234 31.6667 17.0834V37.9167C31.6667 38.3775 32.0392 38.75 32.5 38.75H35.8333V37.0833H33.3334V17.9168H41.2117L48.3333 28.9951V37.0835H44.1666V38.7501H49.1666C49.6275 38.7501 49.9999 38.3776 49.9999 37.9168V28.7501C50 28.5909 49.9542 28.4334 49.8675 28.2993Z" fill="white"/>
<path d="M36.6668 27.0833V21.25H43.3335V19.5833H35.8335C35.3727 19.5833 35.0002 19.9566 35.0002 20.4166V27.9166C35.0002 28.3774 35.3727 28.7499 35.8335 28.7499H48.3335V27.0832H36.6668V27.0833Z" fill="white"/>
<path d="M32.5 10.4167H0.833301C0.37334 10.4167 0 10.79 0 11.25V37.9167C0 38.3775 0.37334 38.75 0.833301 38.75H7.5V37.0833H1.6667V12.0833H31.6667V37.0833H15.8333V38.75H32.5C32.9608 38.75 33.3333 38.3775 33.3333 37.9167V11.25C33.3333 10.79 32.9608 10.4167 32.5 10.4167Z" fill="white"/>
<path d="M5.83325 33.7499H0.833252V35.4166H5.83325V33.7499Z" fill="white"/>
<path d="M31.6666 33.7499H17.4999V35.4166H31.6666V33.7499Z" fill="white"/>
<path d="M49.1666 33.7499H45.8333V35.4166H49.1666V33.7499Z" fill="white"/>
<path d="M32.5 13.75H3.33325V15.4167H32.5V13.75Z" fill="white"/>
<path d="M12.5 37.0834H10.8333V38.7501H12.5V37.0834Z" fill="white"/>
<path d="M40.8334 37.0834H39.1667V38.7501H40.8334V37.0834Z" fill="white"/>
<path d="M15 7.08325H3.33325V8.74995H15V7.08325Z" fill="white"/>
<path d="M1.6667 7.08325H0V8.74995H1.6667V7.08325Z" fill="white"/>
</svg>
